# xmcd
#
# Track frame offsets:
#	150
#	17504
#	34722
#	50928
#	67180
#	80724
#	99430
#	110544
#	132996
#	152178
#	163657
#	182067
#	192245
#	209561
#
# Disc length: 3212 seconds
#
# Revision: 0
# Processed by: cddbd v1.4PL0 Copyright (c) Steve Scherf et al.
# Submitted via: audiograbber 1.82.02
#
DISCID=cb0c8a0e
DTITLE=Various Artist - The Best of The Muster Blues 2003 Disk2
DYEAR=1900
DGENRE=
TTITLE0=Ian Moss - Come On, Petrol Head
TTITLE1=Backsliders - Hanoi
TTITLE2=Andy Cowan with the Crimson Heart Band - Trouble
TTITLE3=Bill Chambers - Sleeping With The Blues
TTITLE4=Paul O'Brien Band - West Coast Highway
TTITLE5=Rock Bottom James and the Detonators - All Of Me
TTITLE6=Lil Fi - Love Him Lovin' Me
TTITLE7=Johnson Stompers - QR Blues
TTITLE8=Atomic Boogie Hour - Missing In Action
TTITLE9=Salty Dog - Jack of Diamonds
TTITLE10=Tim Gaze and Rob Grosser - Slow Walking Blues
TTITLE11=Uncle Bob's Jug Band - Singin' The Blues
TTITLE12=Bo Jenkins - 50 Year Guarantee
TTITLE13=Panga and The True Blues - V8 Ford
EXTD=
EXTT0=
EXTT1=
EXTT2=
EXTT3=
EXTT4=
EXTT5=
EXTT6=
EXTT7=
EXTT8=
EXTT9=
EXTT10=
EXTT11=
EXTT12=
EXTT13=
PLAYORDER=
